# xmcd
#
# Track frame offsets:
#	150
#	12497
#	25889
#	39827
#	53401
#	65809
#	83489
#	94874
#	107718
#	118000
#	129408
#	140845
#	153377
#	164782
#	178207
#	191685
#	203798
#	215309
#	231006
#	245513
#
# Disc length: 3418 seconds
# Revision: 0
# Processed by: cddbd v1.5.2PL0 Copyright (c) Steve Scherf et al.
# Submitted via: dBpowerAMP V12.0
#
DISCID=190d5814
DTITLE=B.B. King - Kings of the Blues Guitar - CD1 - B.B. King
DYEAR=2014
DGENRE=Blues
TTITLE0=Everyday I Have the Blues
TTITLE1=Sweet Little Angel
TTITLE2=When My Heart Beats Like a Hammer
TTITLE3=Three O'clock Blues
TTITLE4=Please Love Me
TTITLE5=Hold That Train
TTITLE6=Sweet Sixteen (Part 2)
TTITLE7=Why Do Things Happen to Me
TTITLE8=That Ain't Theway to Do it
TTITLE9=Early in the Morning
TTITLE10=Please Accept My Love
TTITLE11=What Can I Do?
TTITLE12=The Fool
TTITLE13=You Upset Me Baby
TTITLE14=Boogie Rock (House Rocker)
TTITLE15=Sugar Mama
TTITLE16=Ruby Lee
TTITLE17=My Own Fault, Darlin'
TTITLE18=The Woman I Love
TTITLE19=Treat Me Right
EXTD=
EXTT0=
EXTT1=
EXTT2=
EXTT3=
EXTT4=
EXTT5=
EXTT6=
EXTT7=
EXTT8=
EXTT9=
EXTT10=
EXTT11=
EXTT12=
EXTT13=
EXTT14=
EXTT15=
EXTT16=
EXTT17=
EXTT18=
EXTT19=
PLAYORDER=
